# xmcd CD database file
#
# Track frame offsets:
#	150
#	14764
#	33056
#	48916
#	74870
#	95085
#	116123
#	138065
#	153974
#	172266
#	185726
#	201970
#	224260
#
# Disc length: 3216 seconds
#
# Revision: 1
# Processed by: cddbd v1.5.1PL2 Copyright (c) Steve Scherf et al.
# Submitted via: CDex 1.51
#
DISCID=c60c8e0d
DTITLE=Marcia Ball - Presumed Innocent
DYEAR=2001
DGENRE=Blues
TTITLE0=Scene Of The Crime
TTITLE1=You Make It Hard
TTITLE2=Count The Days
TTITLE3=Let The Tears Roll Down
TTITLE4=Louella
TTITLE5=Fly On The Wall
TTITLE6=I Have The Right To Know
TTITLE7=Thibodaux, Louisiana
TTITLE8=I'm Coming Down With The Blues
TTITLE9=Shake A Leg
TTITLE10=Somebody To Love
TTITLE11=She's So Innocent
TTITLE12=You Make Me Happy
EXTD=YEAR: 2001
EXTT0=
EXTT1=
EXTT2=
EXTT3=
EXTT4=
EXTT5=
EXTT6=
EXTT7=
EXTT8=
EXTT9=
EXTT10=
EXTT11=
EXTT12=
PLAYORDER=
